<svg xmlns="http://www.w3.org/2000/svg" xmlns:xlink="http://www.w3.org/1999/xlink" viewBox="0 0 443.73 533.54"><defs><style>.cls-1,.cls-2,.cls-3,.cls-4,.cls-5,.cls-6,.cls-7,.cls-8,.cls-9{fill-rule:evenodd;}.cls-1{fill:url(#linear-gradient);}.cls-2{fill:url(#linear-gradient-2);}.cls-3{fill:url(#linear-gradient-3);}.cls-4{fill:url(#linear-gradient-4);}.cls-5{fill:url(#linear-gradient-5);}.cls-6{fill:url(#linear-gradient-6);}.cls-7{fill:url(#linear-gradient-7);}.cls-8{fill:url(#linear-gradient-8);}.cls-9{fill:url(#linear-gradient-9);}</style><linearGradient id="linear-gradient" x1="3.11" y1="360.85" x2="64.82" y2="360.85" gradientUnits="userSpaceOnUse"><stop offset="0" stop-color="#f39800"/><stop offset="1" stop-color="#e83828"/></linearGradient><linearGradient id="linear-gradient-2" x1="382.01" y1="356.19" x2="443.73" y2="356.19" xlink:href="#linear-gradient"/><linearGradient id="linear-gradient-3" x1="379.68" y1="137.23" x2="441.4" y2="137.23" xlink:href="#linear-gradient"/><linearGradient id="linear-gradient-4" x1="191.78" y1="30.86" x2="253.5" y2="30.86" xlink:href="#linear-gradient"/><linearGradient id="linear-gradient-5" x1="0" y1="142.67" x2="61.72" y2="142.67" xlink:href="#linear-gradient"/><linearGradient id="linear-gradient-6" x1="4.85" y1="249.8" x2="439.97" y2="249.8" xlink:href="#linear-gradient"/><linearGradient id="linear-gradient-7" x1="164.86" y1="458.61" x2="280.55" y2="458.61" xlink:href="#linear-gradient"/><linearGradient id="linear-gradient-8" x1="171.46" y1="485.78" x2="274.72" y2="485.78" xlink:href="#linear-gradient"/><linearGradient id="linear-gradient-9" x1="183.49" y1="518.98" x2="261.33" y2="518.98" xlink:href="#linear-gradient"/></defs><title>logo1</title><g id="图层_2" data-name="图层 2"><g id="图层_1-2" data-name="图层 1"><path class="cls-1" d="M34,330A30.86,30.86,0,1,1,3.11,360.85,30.86,30.86,0,0,1,34,330Z"/><path class="cls-2" d="M412.87,325.33A30.86,30.86,0,1,1,382,356.19,30.86,30.86,0,0,1,412.87,325.33Z"/><path class="cls-3" d="M410.54,106.37a30.86,30.86,0,1,1-30.86,30.86A30.86,30.86,0,0,1,410.54,106.37Z"/><path class="cls-4" d="M222.64,0a30.86,30.86,0,1,1-30.86,30.86A30.86,30.86,0,0,1,222.64,0Z"/><path class="cls-5" d="M30.86,111.81A30.86,30.86,0,1,1,0,142.67,30.86,30.86,0,0,1,30.86,111.81Z"/><path class="cls-6" d="M360.36,171.51a295.4,295.4,0,0,1-36.84-50l32,35.52s-1.92-8.27-3-26.51c-1.33-23.34,2.58-55.71-22.07-69.17C297.32,43,269.44,77.42,229.83,89c-38.7,11.35-71.47,9.23-71.47,9.23S172.76,96.54,186,94a139.61,139.61,0,0,0,22.87-6.76S199.68,85.79,187.6,79c-20.1-11.25-43.78-30.64-72.12-19.38-32.22,12-18.66,62.05-28.32,103-9.32,39.5-28,66-28,66S76.66,182.49,76.08,178C54.73,206.37,4.85,205.77,4.85,252S85.39,295.24,120.91,378.9c-21.94-28.54-32-36.1-32-36.1a209.11,209.11,0,0,1,2.77,28.84c-1.5,32,3,71.88,40.12,71.88,15.62,0,32.67-9.15,37-11.61l0-.07c.64-10.28-4-28.31-23.92-54.16C117,338.22,82.55,323.56,82.55,255.37a139.37,139.37,0,1,1,278.75,0c0,64.37-30.25,81.68-59.7,121.47-13.95,17.67-21.34,30.23-26.54,54.45h1.31s15.91,11.26,35.91,11.26c51.63,0,36.63-62.39,41.68-92.87,6.79-40.18,29.55-76.75,29.55-76.75L369.71,317a141.11,141.11,0,0,1,17.13-11.74c20.8-12.12,53.12-28.81,53.12-55.6C440.16,212,393.37,207.82,360.36,171.51Z"/><path class="cls-7" d="M173.2,450.26h99a8.35,8.35,0,1,1,0,16.69h-99a8.35,8.35,0,0,1,0-16.69Z"/><path class="cls-8" d="M178.91,477.44h88.37c4.12,0,7.45,3.73,7.45,8.35s-3.33,8.35-7.45,8.35H178.91c-4.11,0-7.45-3.74-7.45-8.35S174.79,477.44,178.91,477.44Z"/><path class="cls-9" d="M183.49,504.42h77.84s-5.24,29.12-38.44,29.12S183.49,504.42,183.49,504.42Z"/></g></g></svg>