<?xml version="1.0" standalone="no"?><!DOCTYPE svg PUBLIC "-//W3C//DTD SVG 1.1//EN" "http://www.w3.org/Graphics/SVG/1.1/DTD/svg11.dtd"><svg t="1566785638640" class="icon" viewBox="0 0 1024 1024" version="1.1" xmlns="http://www.w3.org/2000/svg" p-id="1262" xmlns:xlink="http://www.w3.org/1999/xlink" width="200" height="200"><defs><style type="text/css"></style></defs><path d="M459.5 326.6h18.6v37.3h-18.6zM459.4 457v37.3h14.5l-3.5 12.5 35.9 9.9 5-18-33.2-9.1V457zM596.187 541.365l4.927-17.936 35.968 9.88-4.927 17.937z" fill="#8a8a8a" p-id="1263"></path><path d="M278 506.2c-5-9.7-5.5-24.2 3.5-33.2 3.6-3.6 3.6-9.5 0-13.2-3.6-3.6-9.5-3.6-13.2 0-13.6 13.7-16.4 36.3-6.8 54.9 14 27.1 44.9 36.9 69.8 44.7l2.4 0.8c5.5 1.8 11.1 3.4 16.5 5 0.9 0.3 1.7 0.4 2.6 0.4 4 0 7.8-2.7 8.9-6.7 1.4-4.9-1.4-10.1-6.4-11.5-5.3-1.5-10.7-3.2-16-4.9l-1.4-0.5V367.4l121.5 30.2v31.5H478v-26.8l62.5 15.5v89.1l-2.4-0.6-4.9 18 7.3 2v115.6l-69.7-17.3 19.5-14.6c3.8-2.9 6-7.3 6-12.1s-2.2-9.2-6-12.1l-63-47.3 26.3-19.1-11-15.1-30.1 21.9 1.9 2.6-13.6-10.2c-4.6-3.5-10.7-4-15.8-1.4-5.2 2.6-8.4 7.8-8.4 13.5v134.4c0 5.8 3.2 10.9 8.3 13.5 2.2 1.1 4.5 1.6 6.8 1.6 3.2 0 6.4-1 9-3l50.8-38.1 96 23.9h0.1c0.3 0.1 0.5 0.1 0.8 0.2h0.2c0.3 0 0.7 0.1 1.1 0.1 0.4 0 0.8 0 1.2-0.1h0.3c0.3-0.1 0.7-0.1 1-0.2h0.2c0.4-0.1 0.8-0.3 1.1-0.4 0.1 0 0.1-0.1 0.2-0.1 0.3-0.2 0.6-0.3 0.9-0.5 0 0 0.1 0 0.1-0.1l147.6-94.1c2.7-1.7 4.3-4.7 4.3-7.9v-41.2c23.1-7.9 47.5-23 58.5-43.9 8.6-16.4 7.4-33.7-3.5-50.1-6.5-9.8-15.3-17.1-24.6-24.3-4-3.2-9.9-2.5-13.1 1.6-3.2 4-2.5 9.9 1.6 13.1 8.3 6.5 15.6 12.5 20.6 20 7.1 10.7 7.9 20.8 2.5 31.1-7 13.3-24.1 25.2-42 32.6V316.7v-0.4-0.4c0-0.2 0-0.4-0.1-0.6v-0.3c0-0.3-0.1-0.5-0.2-0.8 0-0.1-0.1-0.2-0.1-0.3-0.1-0.2-0.1-0.4-0.2-0.5 0-0.1-0.1-0.2-0.1-0.3-0.1-0.2-0.1-0.4-0.2-0.5 0-0.1-0.1-0.2-0.1-0.3l-0.3-0.6-0.1-0.1v-0.1c-0.2-0.2-0.3-0.5-0.5-0.7l-0.1-0.1c-0.1-0.2-0.3-0.4-0.5-0.5l-0.3-0.3c-0.1-0.1-0.2-0.2-0.4-0.3-0.1-0.1-0.2-0.2-0.3-0.2-0.1-0.1-0.2-0.2-0.4-0.3-0.1-0.1-0.2-0.1-0.3-0.2-0.1-0.1-0.3-0.2-0.4-0.3-0.1-0.1-0.2-0.1-0.3-0.2-0.2-0.1-0.4-0.2-0.7-0.3h-0.1c-0.3-0.1-0.5-0.2-0.8-0.3-0.1 0-0.1 0-0.2-0.1-0.2-0.1-0.4-0.1-0.5-0.2l-228.7-55c-2.5-0.6-5.2-0.1-7.4 1.3l-140.2 94.1c-0.1 0-0.1 0.1-0.1 0.1-0.2 0.1-0.4 0.3-0.6 0.5-0.1 0.1-0.2 0.1-0.2 0.2-0.3 0.2-0.5 0.5-0.7 0.7 0 0 0 0.1-0.1 0.1-0.2 0.2-0.4 0.5-0.6 0.7-0.1 0.1-0.1 0.2-0.2 0.2-0.1 0.2-0.3 0.4-0.4 0.7-0.1 0.1-0.1 0.2-0.1 0.3-0.1 0.2-0.2 0.5-0.3 0.7 0 0.1-0.1 0.2-0.1 0.3l-0.3 0.9v0.1c-0.1 0.3-0.1 0.7-0.2 1v0.3c0 0.3 0 0.6-0.1 0.8V536c-17.1-6.4-33.3-14.8-41.1-29.8z m117.2 151.6v-92.9V537.5l80.1 60.2-31.3 23.5-48.8 36.6z m82.9-359.2v-25.4L674 320.3l-125.7 80.2-197-48.9 108.2-72.7v19.8l18.6-0.1zM674 524.8h0.2c4.2-0.1 8.9-0.6 14-1.5v24l-24.2-6.6-4.9 18 15.7 4.3-115.6 73.7V531.3l10 2.7 4.9-18-14.9-4.1v-96.4l128.9-82.2v171c-5.1 1.1-9.9 1.8-14.3 1.8-5.1 0.1-9.2 4.3-9.2 9.5 0.2 5.2 4.3 9.2 9.4 9.2z" fill="#8a8a8a" p-id="1264"></path><path d="M253.2 597.9c22.9 18.2 52.4 31.5 90.2 40.5 0.7 0.2 1.5 0.3 2.2 0.3 4.2 0 8-2.9 9.1-7.2 1.2-5-1.9-10-6.9-11.2-35.1-8.4-62.2-20.5-82.9-37-33.4-26.6-46.7-72.4-31.7-108.8 7.9-19.1 23.3-34.5 45.9-45.7 4.6-2.3 6.5-7.9 4.2-12.5s-7.9-6.5-12.5-4.2c-26.4 13.1-45.4 32.2-54.9 55.3-18.2 44-2.5 98.8 37.3 130.5zM727.9 378.4c47.8 20.3 71 46.2 71 79.2 0 34.2-21.7 68.6-54 85.8-4.5 2.4-6.3 8.1-3.9 12.6 1.7 3.2 4.9 4.9 8.2 4.9 1.5 0 3-0.4 4.4-1.1 38.2-20.3 63.9-61.4 63.9-102.3 0-24.7-10.2-46.6-30.3-64.9-12.9-11.8-29.9-22.1-52-31.5-4.7-2-10.2 0.2-12.2 4.9-2.1 4.9 0.1 10.3 4.9 12.4z" fill="#8a8a8a" p-id="1265"></path><path d="M951 152.7H75.4c-5.1 0-9.3 4.2-9.3 9.3v580.8c0 5.1 4.2 9.3 9.3 9.3h357v71.1H451v-71.1h124.3v71.1H594v-71.1h357c5.1 0 9.3-4.2 9.3-9.3V162.1c0.1-5.2-4.1-9.4-9.3-9.4z m-9.3 18.7v526.4h-857V171.4h857z m-857 562.2v-17.1h857v17.1h-857zM626 831.8H400.4c-26.7 0-48.4 21.7-48.4 48.4h18.6c0-16.4 13.4-29.8 29.8-29.8H626c16.4 0 29.8 13.4 29.8 29.8h18.6c0-26.6-21.7-48.4-48.4-48.4z" fill="#8a8a8a" p-id="1266"></path></svg>