<?xml version="1.0" standalone="no"?><!DOCTYPE svg PUBLIC "-//W3C//DTD SVG 1.1//EN" "http://www.w3.org/Graphics/SVG/1.1/DTD/svg11.dtd"><svg t="1566786939745" class="icon" viewBox="0 0 1024 1024" version="1.1" xmlns="http://www.w3.org/2000/svg" p-id="4399" xmlns:xlink="http://www.w3.org/1999/xlink" width="200" height="200"><defs><style type="text/css"></style></defs><path d="M337.0496 984.4224c-60.7744-0.3072-117.1968-44.7488-134.0928-105.728L148.48 878.3872a71.68 71.68 0 0 1-51.968-120.32 71.3216 71.3216 0 0 1 0.4608-96.8704 71.3216 71.3216 0 0 1 0.3072-97.6896 71.68 71.68 0 0 1 52.992-120.064h49.7152v-48.384a212.3776 212.3776 0 0 1-75.3664-163.84A215.04 215.04 0 0 1 239.104 42.5984a23.3472 23.3472 0 0 1 11.264-2.7648 23.6544 23.6544 0 0 1 12.032 3.328 23.3984 23.3984 0 0 1 11.4688 20.1216l-0.8704 175.0016 138.24 0.6656 0.8192-174.9504A23.6544 23.6544 0 0 1 435.6608 40.96a24.1152 24.1152 0 0 1 11.264 2.9184A214.2208 214.2208 0 0 1 501.76 378.88l-0.6144 0.6144h0.8704a76.8 76.8 0 0 1 11.8784-0.9216 72.3968 72.3968 0 0 1 51.2 21.1456L687.5136 522.24v-2.0992A23.4496 23.4496 0 0 1 710.656 496.64l207.4624 0.9728h0.8192a23.3984 23.3984 0 1 1 0 46.7968h-0.9216l-183.6544-0.9216-1.6384 338.8928 160.2048 0.768 1.1776-245.4016a23.4496 23.4496 0 0 1 46.8992 0l-1.3312 268.4416a23.4496 23.4496 0 0 1-23.5008 23.296l-207.5648-0.9728a23.5008 23.5008 0 0 1-23.3472-23.552l1.536-317.44-155.648-155.4944a25.2928 25.2928 0 0 0-35.328 0L415.232 511.0272a24.4736 24.4736 0 0 0-0.3072 34.6112l0.3072 0.3072 0.7168 0.6656a25.0368 25.0368 0 0 0 17.6128 7.3728 25.6 25.6 0 0 0 17.7152-7.168L491.52 507.136a23.5008 23.5008 0 1 1 33.8432 32.6144l-0.6656 0.6656-40.448 39.68a72.704 72.704 0 0 1-101.9904-0.512l-0.7168-0.768a71.0656 71.0656 0 0 1 0-100.4544l0.6656-0.6144L435.2 425.9328v-40.6016a23.296 23.296 0 0 1 9.3184-18.5856 167.3216 167.3216 0 0 0 14.7456-256.6144l-0.4608-0.4608-0.768 152.7808a23.552 23.552 0 0 1-23.6032 23.296l-185.344-0.9216A23.5008 23.5008 0 0 1 225.7408 261.12l0.7168-152.9344-0.512 0.4608a167.5776 167.5776 0 0 0 12.288 256.768A23.3472 23.3472 0 0 1 247.3984 384l-0.3072 59.904h17.8176a71.68 71.68 0 0 1 51.9168 120.1664 71.3216 71.3216 0 0 1-0.4608 96.9216 71.3216 71.3216 0 0 1-0.4608 96.768 71.3216 71.3216 0 0 1-53.0944 119.6032h-10.24v0.4608c15.36 34.816 49.2032 58.3168 84.4288 58.4704h2.7648A92.7744 92.7744 0 0 0 432.6912 844.8l0.8192-175.8208A23.9104 23.9104 0 0 1 481.28 670.72l-0.768 161.9456 154.7264 0.768h0.8192a23.3984 23.3984 0 0 1 11.6736 43.6224 23.3472 23.3472 0 0 1-12.0832 3.2256H634.88l-158.72-0.768v0.256a139.776 139.776 0 0 1-136.0896 104.9088z m-187.5456-202.752a25.6 25.6 0 0 0-0.256 50.6368l112.64 0.512a25.2928 25.2928 0 1 0 0-50.5856z m0.4608-97.28a25.6 25.6 0 0 0-0.256 50.6368l112.64 0.512a25.2928 25.2928 0 1 0 0-50.5856z m0.4608-97.28a25.6 25.6 0 0 0-0.256 50.6368l112.64 0.512a25.2928 25.2928 0 0 0 0-50.5856z m0.4608-97.28a25.6 25.6 0 0 0 0 50.6368l112.64 0.512a25.2928 25.2928 0 0 0 0-50.5856z" p-id="4400" fill="#8a8a8a"></path></svg>