<svg xmlns="http://www.w3.org/2000/svg" viewBox="0 0 832.67 981.62"><defs><style>.cls-1{fill:#5c3290;}.cls-2{fill:#ad98c7;}.cls-3{fill:#eeeaf4;}.cls-4{fill:#b6efff;}.cls-5{fill:#4cc6f4;}.cls-6{fill:#5c3390;}.cls-7{fill:#ffa819;}.cls-8{fill:#ffe404;}.cls-9{fill:#fcddcc;}.cls-10{fill:#7bd721;}.cls-11{fill:#ebeef2;}.cls-12{fill:#cad0d8;}.cls-13{fill:#5f9eeb;}.cls-14{fill:#2864c6;}.cls-15{fill:#a0d37d;}.cls-16,.cls-22{fill:none;stroke:#080a11;stroke-linecap:round;stroke-width:12px;}.cls-16{stroke-miterlimit:10;}.cls-17{fill:#ff6c93;}.cls-18{fill:#f4dbcb;}.cls-19{fill:#f2b186;}.cls-20{fill:#444a65;}.cls-21{fill:#2e354b;}.cls-22{stroke-linejoin:round;}.cls-23{fill:#8ed17d;}.cls-24,.cls-28{fill:#5dad57;}.cls-24{opacity:0.58;}.cls-25{fill:#3b4d63;}.cls-26{fill:#6e7e96;}.cls-27{fill:#fff;}</style></defs><title>资源 1</title><g id="图层_2" data-name="图层 2"><g id="图层_2-2" data-name="图层 2"><g id="图层_1-2" data-name="图层 1"><g id="_编组_" data-name="&lt;编组&gt;"><g id="_编组_2" data-name="&lt;编组&gt;"><path id="_复合路径_" data-name="&lt;复合路径&gt;" class="cls-1" d="M499.87,878.24H108.71a8.6,8.6,0,1,1,0-17.2H499.87a8.6,8.6,0,0,1,0,17.2Zm-426.3,0H43.48a8.6,8.6,0,0,1,0-17.2H73.57a8.6,8.6,0,0,1,0,17.2Zm742.89,0H711.14a8.6,8.6,0,1,1,0-17.2H816.46a8.6,8.6,0,0,1,0,17.2Zm-802.75,0H9.41a8.6,8.6,0,0,1,0-17.2h4.3a8.6,8.6,0,1,1,0,17.2Zm0,0"/><path id="_复合路径_2" data-name="&lt;复合路径&gt;" class="cls-2" d="M483.32,929.93H285.59a8.6,8.6,0,1,1,0-17.2H483.32a8.6,8.6,0,0,1,0,17.2Zm-226.42,0H226.81a8.6,8.6,0,0,1,0-17.2H256.9a8.6,8.6,0,0,1,0,17.2Zm375.15,0H526.74a8.6,8.6,0,0,1,0-17.2H632a8.6,8.6,0,1,1,0,17.2Zm-435,0h-4.3a8.6,8.6,0,0,1,0-17.2H197a8.6,8.6,0,1,1,0,17.2Zm0,0"/><path id="_复合路径_3" data-name="&lt;复合路径&gt;" class="cls-3" d="M377.58,981.62H347.49a8.6,8.6,0,0,1,0-17.2h30.09a8.6,8.6,0,0,1,0,17.2Zm133.79,0H406.06a8.6,8.6,0,0,1,0-17.2H511.37a8.6,8.6,0,1,1,0,17.2Zm-193.75,0h-4.3a8.6,8.6,0,1,1,0-17.2h4.3a8.6,8.6,0,0,1,0,17.2Zm0,0"/><g id="_编组_3" data-name="&lt;编组&gt;"><path id="_复合路径_4" data-name="&lt;复合路径&gt;" class="cls-4" d="M156.09,123.61a21.9,21.9,0,0,0-8.44,1.61,9.35,9.35,0,1,1-12.29,14,22.09,22.09,0,0,0-.8,5.37,21.25,21.25,0,1,0,21.53-21Zm0,0"/><path id="_复合路径_5" data-name="&lt;复合路径&gt;" class="cls-1" d="M162.53,141.2a15.13,15.13,0,1,1-6.08-12.31,4.41,4.41,0,0,0,4.55.59l.19-.09a4.46,4.46,0,0,0,.93-7.65,24.58,24.58,0,1,0,9.51,19.69,4.57,4.57,0,0,0-6.42-4.29,4.38,4.38,0,0,0-2.69,4.07Zm0,0"/></g><path id="_复合路径_6" data-name="&lt;复合路径&gt;" class="cls-5" d="M666.52,114.54a6.09,6.09,0,1,0,6.1-6.09,6.09,6.09,0,0,0-6.1,6.09Zm0,0"/><path id="_复合路径_7" data-name="&lt;复合路径&gt;" class="cls-6" d="M201.82,65a8.6,8.6,0,1,0,10.92-5.34A8.6,8.6,0,0,0,201.82,65Zm0,0"/><path id="_复合路径_8" data-name="&lt;复合路径&gt;" class="cls-7" d="M817.43,314.63a7.62,7.62,0,1,0,7.62-7.62,7.62,7.62,0,0,0-7.62,7.62Zm0,0"/><path id="_复合路径_9" data-name="&lt;复合路径&gt;" class="cls-8" d="M134.87,385.37h-.08a7.12,7.12,0,0,1,3.43,5.25,7.3,7.3,0,0,1-13.79,4.19,11.8,11.8,0,0,0-.23,4.65,12.45,12.45,0,1,0,10.66-14.09Zm0,0"/><path id="_复合路径_10" data-name="&lt;复合路径&gt;" class="cls-2" d="M730.88,355.22h10.67a3.81,3.81,0,1,1,0,7.62H730.88a3.81,3.81,0,1,1,0-7.62Zm13.41,20.11V364.67a3.81,3.81,0,0,1,7.62,0v10.67a3.77,3.77,0,0,1-3.81,3.81,3.87,3.87,0,0,1-3.81-3.81Zm20.11-13.48H753.73a3.81,3.81,0,1,1,0-7.62h10.67a3.81,3.81,0,0,1,0,7.62ZM751,341.74v10.66a3.81,3.81,0,0,1-7.62,0V341.74a3.77,3.77,0,0,1,3.81-3.81,3.82,3.82,0,0,1,3.81,3.81Zm0,0"/><g id="_编组_4" data-name="&lt;编组&gt;"><path id="_复合路径_11" data-name="&lt;复合路径&gt;" class="cls-9" d="M716.33,102.77A3.66,3.66,0,1,0,720,99.12a3.65,3.65,0,0,0-3.66,3.66Zm0,0"/><path id="_复合路径_12" data-name="&lt;复合路径&gt;" class="cls-9" d="M744,100.87a3.66,3.66,0,1,0,3.66-3.66,3.65,3.65,0,0,0-3.66,3.66Zm0,0"/><path id="_复合路径_13" data-name="&lt;复合路径&gt;" class="cls-9" d="M728.9,90.28a3.66,3.66,0,1,0,3.66-3.66,3.66,3.66,0,0,0-3.66,3.66Zm0,0"/><path id="_复合路径_14" data-name="&lt;复合路径&gt;" class="cls-9" d="M730.19,115.41a3.66,3.66,0,1,0,3.66-3.66,3.66,3.66,0,0,0-3.66,3.66Zm0,0"/><path id="_复合路径_15" data-name="&lt;复合路径&gt;" class="cls-9" d="M717,82.51l11.27,11.27a3.07,3.07,0,0,1-4.34,4.34L712.67,86.85a3,3,0,0,1,0-4.34,3.18,3.18,0,0,1,4.34,0Zm-4.34,36.18,11.27-11.27a3.07,3.07,0,0,1,4.34,4.34L717,123a3,3,0,0,1-4.34,0,3.18,3.18,0,0,1,0-4.34Zm37.4,3.66L738.8,111.07a3.07,3.07,0,1,1,4.34-4.34L754.41,118a3.07,3.07,0,1,1-4.34,4.34Zm3-36.79L741.85,96.83a3.07,3.07,0,0,1-4.34-4.34l11.27-11.27a3.07,3.07,0,0,1,4.34,4.34Zm0,0"/></g><path id="_复合路径_16" data-name="&lt;复合路径&gt;" class="cls-10" d="M148.46,269.58l-3.36-6.87a3.07,3.07,0,1,1,5.51-2.7l3.36,6.87a3.07,3.07,0,0,1-5.51,2.7Zm-3.93,8.4-7.2-2.47a3,3,0,1,1,2-5.76l7.2,2.47a3,3,0,0,1-2,5.76Zm3.2,8.75-6.87,3.36a3.07,3.07,0,1,1-2.7-5.51l6.87-3.36a3.07,3.07,0,1,1,2.7,5.52Zm8.42,3.86-2.47,7.2a3,3,0,0,1-5.77-2l2.47-7.2a3,3,0,1,1,5.77,2Zm8.75-3.2,3.36,6.87a3.07,3.07,0,1,1-5.52,2.7l-3.36-6.87a3,3,0,0,1,1.41-4.1,3.17,3.17,0,0,1,4.1,1.41Zm3.86-8.42,7.2,2.47a3,3,0,1,1-2,5.76l-7.2-2.47a3,3,0,1,1,2-5.76Zm-3.22-8.68,6.87-3.36a3.07,3.07,0,1,1,2.7,5.52l-6.87,3.36a3,3,0,0,1-4.11-1.41,3.18,3.18,0,0,1,1.41-4.11Zm-8.4-3.93,2.47-7.2a3,3,0,0,1,5.77,2l-2.47,7.2a3,3,0,0,1-5.77-2Zm0,0"/><path id="_复合路径_17" data-name="&lt;复合路径&gt;" class="cls-1" d="M628.46,36.35a16.76,16.76,0,1,0,16.75,16.76,16.71,16.71,0,0,0-16.75-16.76Zm0,22.85a6.09,6.09,0,1,1,6.09-6.1,6.12,6.12,0,0,1-6.09,6.1Zm0,0"/><path id="_复合路径_18" data-name="&lt;复合路径&gt;" class="cls-3" d="M13.71,319.27A13.71,13.71,0,1,0,27.42,333a13.75,13.75,0,0,0-13.71-13.71Zm0,18.66a4.95,4.95,0,1,1,5-4.95,4.94,4.94,0,0,1-5,4.95Zm0,0"/></g><g id="_编组_5" data-name="&lt;编组&gt;"><g id="_编组_6" data-name="&lt;编组&gt;"><path id="_路径_" data-name="&lt;路径&gt;" class="cls-11" d="M585.1,225.33c-7.71,63.25-53.34,127.56-79.23,168.92C471.16,449.7,347.18,600.87,347.18,600.87c-4.85,6.31-12.75,8.6-19.08,5.52l-113-55c-6.13-3-9.24-10.25-7.61-17.77,0,0,28.78-155.28,52.26-241,13.29-48.52,48.34-147.3,83.91-182,65.13-63.52,149.83-88.66,180-95a16.54,16.54,0,0,1,18,7.94C555.58,47.28,598,119.7,585.1,225.33Z"/><path id="_路径_2" data-name="&lt;路径&gt;" class="cls-12" d="M541.75,23.58a16.54,16.54,0,0,0-18-7.94c-1.17.24-2.43.52-3.75.82,11.71,25.6,38.52,90.76,21.28,187.79-11,61.69-54.48,127-79.51,168.78-33.56,56-150.21,210.7-150.21,210.7-4.13,5.8-10.16,8.6-15.13,7.24l31.67,15.41c6.33,3.08,14.23.79,19.08-5.52,0,0,124-151.17,158.69-206.62,25.89-41.36,71.51-105.67,79.23-168.92C598,119.7,555.58,47.28,541.75,23.58Z"/><path id="_路径_3" data-name="&lt;路径&gt;" class="cls-13" d="M583.72,224.67c13-105.55-29-177.82-42.77-201.47A16.38,16.38,0,0,0,523,15.3c-30.1,6.37-114.51,31.64-179.49,95.24Z"/><path id="_路径_4" data-name="&lt;路径&gt;" class="cls-14" d="M583.72,224.67c13-105.55-29-177.82-42.77-201.47A16.38,16.38,0,0,0,523,15.3l-3.46.76c11.37,25.28,37.73,90.22,20.09,187.42"/><circle id="_路径_5" data-name="&lt;路径&gt;" class="cls-15" cx="401.73" cy="252.89" r="46.96"/><path id="_路径_6" data-name="&lt;路径&gt;" class="cls-16" d="M318.44,601.75l-128.61-62.5a17.25,17.25,0,0,1-9.42-18.65S204,362.84,225.52,276.12a725.14,725.14,0,0,1,29.37-90"/><path id="_路径_7" data-name="&lt;路径&gt;" class="cls-16" d="M296.42,107.71A104.11,104.11,0,0,1,309,93.93C378,32.28,470.89,11.07,504.16,6.22a20.94,20.94,0,0,1,20.46,9.12c16.66,25.07,67.73,101.65,59.1,209.33-5.16,64.48-52.44,128-79,169-7.12,11-18,25.72-30.85,42.25"/><path id="_路径_8" data-name="&lt;路径&gt;" class="cls-16" d="M271.1,149.65q3.09-6.24,6.31-12.16"/><path id="_路径_9" data-name="&lt;路径&gt;" class="cls-17" d="M249.55,628.71a19.73,19.73,0,0,1-33.69-18.47l41.34-131.3a36.92,36.92,0,0,1,66.26,32.56Z"/><path id="_路径_10" data-name="&lt;路径&gt;" class="cls-16" d="M257.2,478.95q.38-.75.79-1.47a36.92,36.92,0,0,1,65.47,34l-73.91,117.2a19.73,19.73,0,0,1-33.69-18.47L247.41,510"/></g><rect id="_矩形_" data-name="&lt;矩形&gt;" class="cls-15" x="180.11" y="673.99" width="60.63" height="19.7" rx="9.85" ry="9.85"/><rect id="_矩形_2" data-name="&lt;矩形&gt;" class="cls-15" x="125.49" y="746.53" width="111.91" height="19.7" rx="9.85" ry="9.85"/><rect id="_矩形_3" data-name="&lt;矩形&gt;" class="cls-15" x="86.99" y="817.32" width="153.75" height="23.4" rx="11.7" ry="11.7"/></g><g id="_编组_7" data-name="&lt;编组&gt;"><g id="_编组_8" data-name="&lt;编组&gt;"><rect id="_矩形_4" data-name="&lt;矩形&gt;" class="cls-18" x="589.23" y="206.41" width="127.72" height="185.17" rx="63.86" ry="63.86" transform="translate(123.18 -185.9) rotate(17.86)"/><g id="_编组_9" data-name="&lt;编组&gt;"><path id="_路径_11" data-name="&lt;路径&gt;" class="cls-19" d="M681.49,210.88h0a63.83,63.83,0,0,0-6.4-1.7,51.56,51.56,0,0,1,27.69,62.55L677.5,350.15a51.56,51.56,0,0,1-59,34.62,63.85,63.85,0,0,0,6.19,2.36h0a64,64,0,0,0,80.37-41.2l17.62-54.69A64,64,0,0,0,681.49,210.88Z"/></g><path id="_路径_12" data-name="&lt;路径&gt;" class="cls-20" d="M705.64,181.15l-29.25-9.43c-24.66-7.95-52.51,9.37-61.89,38.47l-21.38,66.35c-2,6.07.65,12.39,5.79,14l31.65,10.33c5.8,1.89,12.33-2,14.75-8.76l3.92-10.95c1.8-5,6-8.64,10.57-9.17,0,0,33.05,20,62.37,8.25,22.11-8.84,34.51-28.3,42.73-50.52,2.67-7.21,13.65-36.67,14.59-43.71,1.14-8.46-5.34-14.85-12.63-12.52-15.88,5.08-45.6,17.8-49.65,13.56C714.18,183.92,709.87,182.51,705.64,181.15Z"/><g id="_编组_10" data-name="&lt;编组&gt;"><path id="_路径_13" data-name="&lt;路径&gt;" class="cls-21" d="M649,268.56c-3.88.77-7.54,4.54-9.31,9.58l-3.85,11c-2.32,6.6-7.72,10.7-12.37,9.5l7.08,2.31c5.8,1.89,12.33-2,14.75-8.76l3.92-10.95a14.09,14.09,0,0,1,7.77-8.42A56.91,56.91,0,0,1,649,268.56Z"/><path id="_路径_14" data-name="&lt;路径&gt;" class="cls-21" d="M701.48,182c.82,1,3.17.83,6.43-.13l-2.26-.75-13.5-4.35C695.6,177.91,699.11,179.07,701.48,182Z"/><path id="_路径_15" data-name="&lt;路径&gt;" class="cls-21" d="M766.87,173.53c-3.85,1.23-8.53,2.92-13.45,4.7-1.57,7.82-11.86,36.13-14.41,43.19-8,22.28-19.43,42.07-38.36,51.93-10.71,5.58-21.67,5.52-30.73,3.63,12,5,33,11,52.25,3.31,22.11-8.84,34.51-28.3,42.73-50.52,2.67-7.21,13.65-36.67,14.6-43.71C780.64,177.59,774.16,171.2,766.87,173.53Z"/></g><g id="_编组_11" data-name="&lt;编组&gt;"><path id="_路径_16" data-name="&lt;路径&gt;" class="cls-16" d="M674.81,373.25a75.91,75.91,0,0,0,9.94-7.88"/><path id="_路径_17" data-name="&lt;路径&gt;" class="cls-16" d="M638.3,163.46a55.81,55.81,0,0,0-49.58,38.43l-21.38,66.35a11.51,11.51,0,0,0-.39,1.65l-5.68,17.61a75.6,75.6,0,0,0,48.62,94.86h0a74.72,74.72,0,0,0,37.81,2.13"/><path id="_路径_18" data-name="&lt;路径&gt;" class="cls-22" d="M698.83,347.37a75,75,0,0,0,5.93-13.63L715.32,301a74.74,74.74,0,0,0,3.61-22.57c24.43-8.06,37.54-26.91,45.8-48.69,2.72-7.19,13.94-36.58,14.68-43.68a12.5,12.5,0,0,0-15.35-13.4c-18.21,4.33-52.11,15.7-57.05,11.18-3.7-3.39-8.78-5.05-13.78-6.66l-28.57-9.21"/></g></g><g id="_编组_12" data-name="&lt;编组&gt;"><rect id="_矩形_5" data-name="&lt;矩形&gt;" class="cls-23" x="361.74" y="431.75" width="285.96" height="130.47" rx="65.23" ry="65.23" transform="translate(-195.32 605.03) rotate(-53.33)"/><g id="_编组_13" data-name="&lt;编组&gt;"><polygon id="_路径_19" data-name="&lt;路径&gt;" class="cls-24" points="498.82 395.66 498.82 395.66 405.97 520.38 405.97 520.39 498.82 395.66"/><path id="_路径_20" data-name="&lt;路径&gt;" class="cls-24" d="M590.11,382.29h0a65.07,65.07,0,0,0-7-4.5,49.83,49.83,0,0,1,4.63,64.67L476.31,592.19A49.83,49.83,0,0,1,413,606.29a65,65,0,0,0,6.31,5.38h0a65.43,65.43,0,0,0,91.28-13.37l92.86-124.72A65.43,65.43,0,0,0,590.11,382.29Z"/></g><path id="_路径_21" data-name="&lt;路径&gt;" class="cls-25" d="M518.14,588.19,330.36,834.4a16,16,0,0,1-21.25,3.89l-52-32.39a16,16,0,0,1-5.48-21.53L397.46,526.9Z"/><path id="_路径_22" data-name="&lt;路径&gt;" class="cls-26" d="M598.09,624,423.68,517.18a17.33,17.33,0,0,0-23.76,5.71l-18.13,29.61a63.2,63.2,0,0,0,20.83,86.64l115.83,70.93L483.75,833a13.58,13.58,0,0,0,9.35,16.7l61.77,17.43a13.58,13.58,0,0,0,16.7-9.35L620,686.25c.24-.84.43-1.69.61-2.53A52.21,52.21,0,0,0,598.09,624Z"/><path id="_路径_23" data-name="&lt;路径&gt;" class="cls-25" d="M598.09,624,423.68,517.18A17.18,17.18,0,0,0,411.59,515a13.58,13.58,0,0,1,5.07,2.23L567.15,624c17.79,12.63,25.31,37.58,19.42,59.74-.15.85-.32,1.69-.53,2.53L544.27,857.8a14.06,14.06,0,0,1-2.74,5.59l13.34,3.77a13.58,13.58,0,0,0,16.7-9.35L620,686.25c.24-.84.43-1.69.61-2.53A52.21,52.21,0,0,0,598.09,624Z"/><path id="_路径_24" data-name="&lt;路径&gt;" class="cls-22" d="M305.31,689.6l-53.67,94.76a16,16,0,0,0,5.48,21.53l52,32.39a16,16,0,0,0,21.25-3.89l71.37-93.57L413,726l9.14-12"/><path id="_路径_25" data-name="&lt;路径&gt;" class="cls-22" d="M587,495.72l16.48-22.14a65.43,65.43,0,0,0-13.37-91.28h0a65.43,65.43,0,0,0-91.28,13.37L409.66,515.42a17.18,17.18,0,0,0-9.75,7.48l-18.13,29.61a62.6,62.6,0,0,0-5.79,12.3l-54.23,95.74"/><path id="_路径_26" data-name="&lt;路径&gt;" class="cls-22" d="M600.19,756.38,620,686.25c.24-.84.43-1.69.61-2.53A52.21,52.21,0,0,0,598.09,624l-73.21-44.83,36.21-48.63"/><line id="_路径_27" data-name="&lt;路径&gt;" class="cls-22" x1="586.3" y1="805.6" x2="591.08" y2="788.67"/><path id="_路径_28" data-name="&lt;路径&gt;" class="cls-22" d="M454.87,671.15l63.58,38.93L483.75,833a13.58,13.58,0,0,0,9.35,16.7l61.77,17.43a13.58,13.58,0,0,0,16.7-9.35l7-24.76"/></g><g id="_编组_14" data-name="&lt;编组&gt;"><rect id="_矩形_6" data-name="&lt;矩形&gt;" class="cls-27" x="304.85" y="383.88" width="274.17" height="75.65" rx="37.83" ry="37.83" transform="translate(42.73 -40.66) rotate(5.53)"/><path id="_路径_29" data-name="&lt;路径&gt;" class="cls-23" d="M537.08,469,339.49,454.76c-20.71-1.49-36-15.3-34-30.68h0c2-15.38,20.59-26.75,41.3-25.26L544.38,413c20.71,1.49,36,15.3,34,30.68h0C576.38,459.1,557.79,470.47,537.08,469Z"/><path id="_路径_30" data-name="&lt;路径&gt;" class="cls-28" d="M537.08,449,339.49,434.79c-14.73-1.06-26.71-8.35-31.69-18a22.12,22.12,0,0,0-2.31,7.29h0c-2,15.38,13.29,29.19,34,30.68L537.08,469c20.71,1.49,39.29-9.88,41.3-25.26h0A21.36,21.36,0,0,0,576.07,431C570.14,442.56,554.35,450.26,537.08,449Z"/><rect id="_矩形_7" data-name="&lt;矩形&gt;" class="cls-18" x="304.72" y="386.59" width="62.72" height="62.72" rx="31.36" ry="31.36" transform="translate(41.88 -30.47) rotate(5.53)"/><path id="_路径_31" data-name="&lt;路径&gt;" class="cls-16" d="M401.72,379.81l142.66,13.82a37.94,37.94,0,0,1,34,41.3h0a37.94,37.94,0,0,1-41.3,34l-59.49-5.76"/><line id="_路径_32" data-name="&lt;路径&gt;" class="cls-16" x1="362.13" y1="375.97" x2="372.56" y2="376.99"/><path id="_路径_33" data-name="&lt;路径&gt;" class="cls-16" d="M450.12,460.51,339.49,449.79a37.94,37.94,0,0,1-34-41.3h0A38,38,0,0,1,336.08,375"/></g></g></g></g></g></g></svg>